<?xml version="1.0" encoding="utf-8"?>
<svg xmlns="http://www.w3.org/2000/svg" viewBox="55.353 0.025 170 170">
<style type="text/css">
	.st0{fill:#00AED6;}
	.st1{fill-rule:evenodd;clip-rule:evenodd;fill:#FFFFFF;}
</style>
<g transform="translate(67.053 1.125)">
	<circle class="st0" cx="73.3" cy="83.9" r="85"/>
	<path class="st1" d="M122.9,81.4c-0.7-10.6-9.9-19.1-20.6-18.4H48.5c-2.1,0-3.5-1.4-3.5-3.5c0-2.1,1.4-3.5,3.5-3.5H103
		c-0.4-7.1-5.7-14.5-12.4-15.6c-15.9-2.8-32.2-2.8-47.8,0c-8.9,1.4-15.6,10.3-17,18.8c-2.5,16.7-2.5,33.6,0,50.3
		c1.8,9.6,9.6,17.4,19.5,18.8c19.8,2.5,39.7,2.5,59.2,0c8.9-1.1,14.5-9.2,16.3-17.7C122.5,100.6,123.2,91,122.9,81.4z M105.2,93.1
		v3.2c0,2.1-1.4,3.5-3.5,3.5s-3.5-1.4-3.5-3.5v-3.2c-1.1-1.1-1.8-2.5-1.8-3.9c0-2.8,2.5-5.3,5.3-5.3c2.8,0,5.3,2.5,5.3,5.3
		C106.9,90.6,106.2,92.1,105.2,93.1z"/>
</g>
</svg>
